<mxfile host="65bd71144e">
    <diagram id="R2lEEEUBdFMjLlhIrx00" name="Page-1">
        <mxGraphModel dx="1216" dy="1892" grid="1" gridSize="10" guides="1" tooltips="1" connect="1" arrows="1" fold="1" page="1" pageScale="1" pageWidth="850" pageHeight="1100" math="0" shadow="0" extFonts="Permanent Marker^https://fonts.googleapis.com/css?family=Permanent+Marker">
            <root>
                <mxCell id="0"/>
                <mxCell id="1" parent="0"/>
                <mxCell id="ISM1A_LoX-M4XCHeq22W-2" value="departements" style="shape=table;startSize=30;container=1;collapsible=1;childLayout=tableLayout;fixedRows=1;rowLines=0;fontStyle=1;align=center;resizeLast=1;html=1;fillColor=#FFFFFF;strokeColor=default;fontColor=#000000;labelBackgroundColor=none;" parent="1" vertex="1">
                    <mxGeometry y="-1100" width="180" height="80" as="geometry"/>
                </mxCell>
                <mxCell id="ISM1A_LoX-M4XCHeq22W-3" value="" style="shape=tableRow;horizontal=0;startSize=0;swimlaneHead=0;swimlaneBody=0;fillColor=#FFFFFF;collapsible=0;dropTarget=0;points=[[0,0.5],[1,0.5]];portConstraint=eastwest;top=0;left=0;right=0;bottom=1;labelBackgroundColor=none;strokeColor=default;" parent="ISM1A_LoX-M4XCHeq22W-2" vertex="1">
                    <mxGeometry y="30" width="180" height="20" as="geometry"/>
                </mxCell>
                <mxCell id="ISM1A_LoX-M4XCHeq22W-4" value="PK" style="shape=partialRectangle;connectable=0;fillColor=#FFFFFF;top=0;left=0;bottom=0;right=0;fontStyle=1;overflow=hidden;whiteSpace=wrap;html=1;strokeColor=default;fontColor=#000000;labelBackgroundColor=none;" parent="ISM1A_LoX-M4XCHeq22W-3" vertex="1">
                    <mxGeometry width="30" height="20" as="geometry">
                        <mxRectangle width="30" height="20" as="alternateBounds"/>
                    </mxGeometry>
                </mxCell>
                <mxCell id="ISM1A_LoX-M4XCHeq22W-5" value="id" style="shape=partialRectangle;connectable=0;fillColor=#FFFFFF;top=0;left=0;bottom=0;right=0;align=left;spacingLeft=6;fontStyle=5;overflow=hidden;whiteSpace=wrap;html=1;strokeColor=default;fontColor=#000000;labelBackgroundColor=none;" parent="ISM1A_LoX-M4XCHeq22W-3" vertex="1">
                    <mxGeometry x="30" width="150" height="20" as="geometry">
                        <mxRectangle width="150" height="20" as="alternateBounds"/>
                    </mxGeometry>
                </mxCell>
                <mxCell id="ISM1A_LoX-M4XCHeq22W-9" value="" style="shape=tableRow;horizontal=0;startSize=0;swimlaneHead=0;swimlaneBody=0;fillColor=#FFFFFF;collapsible=0;dropTarget=0;points=[[0,0.5],[1,0.5]];portConstraint=eastwest;top=0;left=0;right=0;bottom=0;labelBackgroundColor=none;strokeColor=default;" parent="ISM1A_LoX-M4XCHeq22W-2" vertex="1">
                    <mxGeometry y="50" width="180" height="30" as="geometry"/>
                </mxCell>
                <mxCell id="ISM1A_LoX-M4XCHeq22W-10" value="" style="shape=partialRectangle;connectable=0;fillColor=#FFFFFF;top=0;left=0;bottom=0;right=0;editable=1;overflow=hidden;whiteSpace=wrap;html=1;strokeColor=default;fontColor=#000000;labelBackgroundColor=none;" parent="ISM1A_LoX-M4XCHeq22W-9" vertex="1">
                    <mxGeometry width="30" height="30" as="geometry">
                        <mxRectangle width="30" height="30" as="alternateBounds"/>
                    </mxGeometry>
                </mxCell>
                <mxCell id="ISM1A_LoX-M4XCHeq22W-11" value="name - VARCHAR(50)" style="shape=partialRectangle;connectable=0;fillColor=#FFFFFF;top=0;left=0;bottom=0;right=0;align=left;spacingLeft=6;overflow=hidden;whiteSpace=wrap;html=1;strokeColor=default;fontColor=#000000;labelBackgroundColor=none;" parent="ISM1A_LoX-M4XCHeq22W-9" vertex="1">
                    <mxGeometry x="30" width="150" height="30" as="geometry">
                        <mxRectangle width="150" height="30" as="alternateBounds"/>
                    </mxGeometry>
                </mxCell>
                <mxCell id="ISM1A_LoX-M4XCHeq22W-15" value="degree_courses" style="shape=table;startSize=30;container=1;collapsible=1;childLayout=tableLayout;fixedRows=1;rowLines=0;fontStyle=1;align=center;resizeLast=1;html=1;fillColor=#FFFFFF;gradientColor=none;strokeColor=default;labelBackgroundColor=none;fontColor=#000000;" parent="1" vertex="1">
                    <mxGeometry x="240" y="-897.5" width="180" height="140" as="geometry"/>
                </mxCell>
                <mxCell id="ISM1A_LoX-M4XCHeq22W-16" value="" style="shape=tableRow;horizontal=0;startSize=0;swimlaneHead=0;swimlaneBody=0;fillColor=#FFFFFF;collapsible=0;dropTarget=0;points=[[0,0.5],[1,0.5]];portConstraint=eastwest;top=0;left=0;right=0;bottom=1;labelBackgroundColor=none;gradientColor=none;fontColor=#000000;strokeColor=default;" parent="ISM1A_LoX-M4XCHeq22W-15" vertex="1">
                    <mxGeometry y="30" width="180" height="30" as="geometry"/>
                </mxCell>
                <mxCell id="ISM1A_LoX-M4XCHeq22W-17" value="PK" style="shape=partialRectangle;connectable=0;fillColor=#FFFFFF;top=0;left=0;bottom=0;right=0;fontStyle=1;overflow=hidden;whiteSpace=wrap;html=1;gradientColor=none;strokeColor=default;labelBackgroundColor=none;fontColor=#000000;" parent="ISM1A_LoX-M4XCHeq22W-16" vertex="1">
                    <mxGeometry width="30" height="30" as="geometry">
                        <mxRectangle width="30" height="30" as="alternateBounds"/>
                    </mxGeometry>
                </mxCell>
                <mxCell id="ISM1A_LoX-M4XCHeq22W-18" value="id" style="shape=partialRectangle;connectable=0;fillColor=#FFFFFF;top=0;left=0;bottom=0;right=0;align=left;spacingLeft=6;fontStyle=5;overflow=hidden;whiteSpace=wrap;html=1;gradientColor=none;strokeColor=default;labelBackgroundColor=none;fontColor=#000000;" parent="ISM1A_LoX-M4XCHeq22W-16" vertex="1">
                    <mxGeometry x="30" width="150" height="30" as="geometry">
                        <mxRectangle width="150" height="30" as="alternateBounds"/>
                    </mxGeometry>
                </mxCell>
                <mxCell id="yGnGQAbGgA8px8D-PLze-32" value="" style="shape=tableRow;horizontal=0;startSize=0;swimlaneHead=0;swimlaneBody=0;fillColor=#FFFFFF;collapsible=0;dropTarget=0;points=[[0,0.5],[1,0.5]];portConstraint=eastwest;top=0;left=0;right=0;bottom=1;labelBackgroundColor=none;gradientColor=none;fontColor=#000000;strokeColor=default;" parent="ISM1A_LoX-M4XCHeq22W-15" vertex="1">
                    <mxGeometry y="60" width="180" height="30" as="geometry"/>
                </mxCell>
                <mxCell id="yGnGQAbGgA8px8D-PLze-33" value="FK" style="shape=partialRectangle;connectable=0;fillColor=#FFFFFF;top=0;left=0;bottom=0;right=0;fontStyle=1;overflow=hidden;whiteSpace=wrap;html=1;gradientColor=none;strokeColor=default;labelBackgroundColor=none;fontColor=#000000;" parent="yGnGQAbGgA8px8D-PLze-32" vertex="1">
                    <mxGeometry width="30" height="30" as="geometry">
                        <mxRectangle width="30" height="30" as="alternateBounds"/>
                    </mxGeometry>
                </mxCell>
                <mxCell id="yGnGQAbGgA8px8D-PLze-34" value="department_id" style="shape=partialRectangle;connectable=0;fillColor=#FFFFFF;top=0;left=0;bottom=0;right=0;align=left;spacingLeft=6;fontStyle=5;overflow=hidden;whiteSpace=wrap;html=1;gradientColor=none;strokeColor=default;labelBackgroundColor=none;fontColor=#000000;" parent="yGnGQAbGgA8px8D-PLze-32" vertex="1">
                    <mxGeometry x="30" width="150" height="30" as="geometry">
                        <mxRectangle width="150" height="30" as="alternateBounds"/>
                    </mxGeometry>
                </mxCell>
                <mxCell id="ISM1A_LoX-M4XCHeq22W-22" value="" style="shape=tableRow;horizontal=0;startSize=0;swimlaneHead=0;swimlaneBody=0;fillColor=#FFFFFF;collapsible=0;dropTarget=0;points=[[0,0.5],[1,0.5]];portConstraint=eastwest;top=0;left=0;right=0;bottom=0;labelBackgroundColor=none;gradientColor=none;fontColor=#000000;strokeColor=default;" parent="ISM1A_LoX-M4XCHeq22W-15" vertex="1">
                    <mxGeometry y="90" width="180" height="20" as="geometry"/>
                </mxCell>
                <mxCell id="ISM1A_LoX-M4XCHeq22W-23" value="" style="shape=partialRectangle;connectable=0;fillColor=#FFFFFF;top=0;left=0;bottom=0;right=0;editable=1;overflow=hidden;whiteSpace=wrap;html=1;gradientColor=none;strokeColor=default;labelBackgroundColor=none;fontColor=#000000;" parent="ISM1A_LoX-M4XCHeq22W-22" vertex="1">
                    <mxGeometry width="30" height="20" as="geometry">
                        <mxRectangle width="30" height="20" as="alternateBounds"/>
                    </mxGeometry>
                </mxCell>
                <mxCell id="ISM1A_LoX-M4XCHeq22W-24" value="name" style="shape=partialRectangle;connectable=0;fillColor=#FFFFFF;top=0;left=0;bottom=0;right=0;align=left;spacingLeft=6;overflow=hidden;whiteSpace=wrap;html=1;gradientColor=none;strokeColor=default;labelBackgroundColor=none;fontColor=#000000;" parent="ISM1A_LoX-M4XCHeq22W-22" vertex="1">
                    <mxGeometry x="30" width="150" height="20" as="geometry">
                        <mxRectangle width="150" height="20" as="alternateBounds"/>
                    </mxGeometry>
                </mxCell>
                <mxCell id="ISM1A_LoX-M4XCHeq22W-25" value="" style="shape=tableRow;horizontal=0;startSize=0;swimlaneHead=0;swimlaneBody=0;fillColor=#FFFFFF;collapsible=0;dropTarget=0;points=[[0,0.5],[1,0.5]];portConstraint=eastwest;top=0;left=0;right=0;bottom=0;labelBackgroundColor=none;gradientColor=none;fontColor=#000000;strokeColor=default;" parent="ISM1A_LoX-M4XCHeq22W-15" vertex="1">
                    <mxGeometry y="110" width="180" height="30" as="geometry"/>
                </mxCell>
                <mxCell id="ISM1A_LoX-M4XCHeq22W-26" value="" style="shape=partialRectangle;connectable=0;fillColor=#FFFFFF;top=0;left=0;bottom=0;right=0;editable=1;overflow=hidden;whiteSpace=wrap;html=1;gradientColor=none;strokeColor=default;labelBackgroundColor=none;fontColor=#000000;" parent="ISM1A_LoX-M4XCHeq22W-25" vertex="1">
                    <mxGeometry width="30" height="30" as="geometry">
                        <mxRectangle width="30" height="30" as="alternateBounds"/>
                    </mxGeometry>
                </mxCell>
                <mxCell id="ISM1A_LoX-M4XCHeq22W-27" value="duration" style="shape=partialRectangle;connectable=0;fillColor=#FFFFFF;top=0;left=0;bottom=0;right=0;align=left;spacingLeft=6;overflow=hidden;whiteSpace=wrap;html=1;gradientColor=none;strokeColor=default;labelBackgroundColor=none;fontColor=#000000;" parent="ISM1A_LoX-M4XCHeq22W-25" vertex="1">
                    <mxGeometry x="30" width="150" height="30" as="geometry">
                        <mxRectangle width="150" height="30" as="alternateBounds"/>
                    </mxGeometry>
                </mxCell>
                <mxCell id="ISM1A_LoX-M4XCHeq22W-28" value="teachers" style="shape=table;startSize=30;container=1;collapsible=1;childLayout=tableLayout;fixedRows=1;rowLines=0;fontStyle=1;align=center;resizeLast=1;html=1;fillColor=#FFFFFF;fontColor=#000000;strokeColor=default;labelBackgroundColor=none;" parent="1" vertex="1">
                    <mxGeometry x="1120" y="-947.5" width="180" height="145" as="geometry"/>
                </mxCell>
                <mxCell id="ISM1A_LoX-M4XCHeq22W-29" value="" style="shape=tableRow;horizontal=0;startSize=0;swimlaneHead=0;swimlaneBody=0;fillColor=#FFFFFF;collapsible=0;dropTarget=0;points=[[0,0.5],[1,0.5]];portConstraint=eastwest;top=0;left=0;right=0;bottom=1;labelBackgroundColor=none;fontColor=#000000;strokeColor=default;" parent="ISM1A_LoX-M4XCHeq22W-28" vertex="1">
                    <mxGeometry y="30" width="180" height="30" as="geometry"/>
                </mxCell>
                <mxCell id="ISM1A_LoX-M4XCHeq22W-30" value="PK" style="shape=partialRectangle;connectable=0;fillColor=#FFFFFF;top=0;left=0;bottom=0;right=0;fontStyle=1;overflow=hidden;whiteSpace=wrap;html=1;fontColor=#000000;strokeColor=default;labelBackgroundColor=none;" parent="ISM1A_LoX-M4XCHeq22W-29" vertex="1">
                    <mxGeometry width="30" height="30" as="geometry">
                        <mxRectangle width="30" height="30" as="alternateBounds"/>
                    </mxGeometry>
                </mxCell>
                <mxCell id="ISM1A_LoX-M4XCHeq22W-31" value="id" style="shape=partialRectangle;connectable=0;fillColor=#FFFFFF;top=0;left=0;bottom=0;right=0;align=left;spacingLeft=6;fontStyle=5;overflow=hidden;whiteSpace=wrap;html=1;fontColor=#000000;strokeColor=default;labelBackgroundColor=none;" parent="ISM1A_LoX-M4XCHeq22W-29" vertex="1">
                    <mxGeometry x="30" width="150" height="30" as="geometry">
                        <mxRectangle width="150" height="30" as="alternateBounds"/>
                    </mxGeometry>
                </mxCell>
                <mxCell id="ISM1A_LoX-M4XCHeq22W-32" value="" style="shape=tableRow;horizontal=0;startSize=0;swimlaneHead=0;swimlaneBody=0;fillColor=#FFFFFF;collapsible=0;dropTarget=0;points=[[0,0.5],[1,0.5]];portConstraint=eastwest;top=0;left=0;right=0;bottom=0;fontColor=#000000;strokeColor=default;labelBackgroundColor=none;" parent="ISM1A_LoX-M4XCHeq22W-28" vertex="1">
                    <mxGeometry y="60" width="180" height="25" as="geometry"/>
                </mxCell>
                <mxCell id="ISM1A_LoX-M4XCHeq22W-33" value="" style="shape=partialRectangle;connectable=0;fillColor=#FFFFFF;top=0;left=0;bottom=0;right=0;editable=1;overflow=hidden;whiteSpace=wrap;html=1;labelBackgroundColor=none;fontColor=#000000;strokeColor=default;" parent="ISM1A_LoX-M4XCHeq22W-32" vertex="1">
                    <mxGeometry width="30" height="25" as="geometry">
                        <mxRectangle width="30" height="25" as="alternateBounds"/>
                    </mxGeometry>
                </mxCell>
                <mxCell id="ISM1A_LoX-M4XCHeq22W-34" value="first_name" style="shape=partialRectangle;connectable=0;fillColor=#FFFFFF;top=0;left=0;bottom=0;right=0;align=left;spacingLeft=6;overflow=hidden;whiteSpace=wrap;html=1;fontColor=#000000;strokeColor=default;labelBackgroundColor=none;" parent="ISM1A_LoX-M4XCHeq22W-32" vertex="1">
                    <mxGeometry x="30" width="150" height="25" as="geometry">
                        <mxRectangle width="150" height="25" as="alternateBounds"/>
                    </mxGeometry>
                </mxCell>
                <mxCell id="ISM1A_LoX-M4XCHeq22W-35" value="" style="shape=tableRow;horizontal=0;startSize=0;swimlaneHead=0;swimlaneBody=0;fillColor=#FFFFFF;collapsible=0;dropTarget=0;points=[[0,0.5],[1,0.5]];portConstraint=eastwest;top=0;left=0;right=0;bottom=0;fontColor=#000000;strokeColor=default;labelBackgroundColor=none;" parent="ISM1A_LoX-M4XCHeq22W-28" vertex="1">
                    <mxGeometry y="85" width="180" height="30" as="geometry"/>
                </mxCell>
                <mxCell id="ISM1A_LoX-M4XCHeq22W-36" value="" style="shape=partialRectangle;connectable=0;fillColor=#FFFFFF;top=0;left=0;bottom=0;right=0;editable=1;overflow=hidden;whiteSpace=wrap;html=1;labelBackgroundColor=none;fontColor=#000000;strokeColor=default;" parent="ISM1A_LoX-M4XCHeq22W-35" vertex="1">
                    <mxGeometry width="30" height="30" as="geometry">
                        <mxRectangle width="30" height="30" as="alternateBounds"/>
                    </mxGeometry>
                </mxCell>
                <mxCell id="ISM1A_LoX-M4XCHeq22W-37" value="last_name" style="shape=partialRectangle;connectable=0;fillColor=#FFFFFF;top=0;left=0;bottom=0;right=0;align=left;spacingLeft=6;overflow=hidden;whiteSpace=wrap;html=1;fontColor=#000000;strokeColor=default;labelBackgroundColor=none;" parent="ISM1A_LoX-M4XCHeq22W-35" vertex="1">
                    <mxGeometry x="30" width="150" height="30" as="geometry">
                        <mxRectangle width="150" height="30" as="alternateBounds"/>
                    </mxGeometry>
                </mxCell>
                <mxCell id="ISM1A_LoX-M4XCHeq22W-38" value="" style="shape=tableRow;horizontal=0;startSize=0;swimlaneHead=0;swimlaneBody=0;fillColor=#FFFFFF;collapsible=0;dropTarget=0;points=[[0,0.5],[1,0.5]];portConstraint=eastwest;top=0;left=0;right=0;bottom=0;labelBackgroundColor=none;fontColor=#000000;strokeColor=default;" parent="ISM1A_LoX-M4XCHeq22W-28" vertex="1">
                    <mxGeometry y="115" width="180" height="30" as="geometry"/>
                </mxCell>
                <mxCell id="ISM1A_LoX-M4XCHeq22W-39" value="&amp;nbsp;" style="shape=partialRectangle;connectable=0;fillColor=#FFFFFF;top=0;left=0;bottom=0;right=0;editable=1;overflow=hidden;whiteSpace=wrap;html=1;fontColor=#000000;strokeColor=default;labelBackgroundColor=none;" parent="ISM1A_LoX-M4XCHeq22W-38" vertex="1">
                    <mxGeometry width="30" height="30" as="geometry">
                        <mxRectangle width="30" height="30" as="alternateBounds"/>
                    </mxGeometry>
                </mxCell>
                <mxCell id="ISM1A_LoX-M4XCHeq22W-40" value="email" style="shape=partialRectangle;connectable=0;fillColor=#FFFFFF;top=0;left=0;bottom=0;right=0;align=left;spacingLeft=6;overflow=hidden;whiteSpace=wrap;html=1;fontColor=#000000;strokeColor=default;labelBackgroundColor=none;" parent="ISM1A_LoX-M4XCHeq22W-38" vertex="1">
                    <mxGeometry x="30" width="150" height="30" as="geometry">
                        <mxRectangle width="150" height="30" as="alternateBounds"/>
                    </mxGeometry>
                </mxCell>
                <mxCell id="ISM1A_LoX-M4XCHeq22W-41" value="courses" style="shape=table;startSize=30;container=1;collapsible=1;childLayout=tableLayout;fixedRows=1;rowLines=0;fontStyle=1;align=center;resizeLast=1;html=1;fillColor=#FFFFFF;fontColor=#000000;strokeColor=default;labelBackgroundColor=none;" parent="1" vertex="1">
                    <mxGeometry x="680" y="-897.5" width="180" height="170" as="geometry"/>
                </mxCell>
                <mxCell id="ISM1A_LoX-M4XCHeq22W-42" value="" style="shape=tableRow;horizontal=0;startSize=0;swimlaneHead=0;swimlaneBody=0;fillColor=#FFFFFF;collapsible=0;dropTarget=0;points=[[0,0.5],[1,0.5]];portConstraint=eastwest;top=0;left=0;right=0;bottom=1;labelBackgroundColor=none;fontColor=#000000;strokeColor=default;" parent="ISM1A_LoX-M4XCHeq22W-41" vertex="1">
                    <mxGeometry y="30" width="180" height="30" as="geometry"/>
                </mxCell>
                <mxCell id="ISM1A_LoX-M4XCHeq22W-43" value="PK" style="shape=partialRectangle;connectable=0;fillColor=#FFFFFF;top=0;left=0;bottom=0;right=0;fontStyle=1;overflow=hidden;whiteSpace=wrap;html=1;fontColor=#000000;strokeColor=default;labelBackgroundColor=none;" parent="ISM1A_LoX-M4XCHeq22W-42" vertex="1">
                    <mxGeometry width="30" height="30" as="geometry">
                        <mxRectangle width="30" height="30" as="alternateBounds"/>
                    </mxGeometry>
                </mxCell>
                <mxCell id="ISM1A_LoX-M4XCHeq22W-44" value="id" style="shape=partialRectangle;connectable=0;fillColor=#FFFFFF;top=0;left=0;bottom=0;right=0;align=left;spacingLeft=6;fontStyle=5;overflow=hidden;whiteSpace=wrap;html=1;fontColor=#000000;strokeColor=default;labelBackgroundColor=none;" parent="ISM1A_LoX-M4XCHeq22W-42" vertex="1">
                    <mxGeometry x="30" width="150" height="30" as="geometry">
                        <mxRectangle width="150" height="30" as="alternateBounds"/>
                    </mxGeometry>
                </mxCell>
                <mxCell id="ISM1A_LoX-M4XCHeq22W-45" value="" style="shape=tableRow;horizontal=0;startSize=0;swimlaneHead=0;swimlaneBody=0;fillColor=#FFFFFF;collapsible=0;dropTarget=0;points=[[0,0.5],[1,0.5]];portConstraint=eastwest;top=0;left=0;right=0;bottom=0;labelBackgroundColor=none;fontColor=#000000;strokeColor=default;" parent="ISM1A_LoX-M4XCHeq22W-41" vertex="1">
                    <mxGeometry y="60" width="180" height="30" as="geometry"/>
                </mxCell>
                <mxCell id="ISM1A_LoX-M4XCHeq22W-46" value="" style="shape=partialRectangle;connectable=0;fillColor=#FFFFFF;top=0;left=0;bottom=0;right=0;editable=1;overflow=hidden;whiteSpace=wrap;html=1;fontColor=#000000;strokeColor=default;labelBackgroundColor=none;" parent="ISM1A_LoX-M4XCHeq22W-45" vertex="1">
                    <mxGeometry width="30" height="30" as="geometry">
                        <mxRectangle width="30" height="30" as="alternateBounds"/>
                    </mxGeometry>
                </mxCell>
                <mxCell id="ISM1A_LoX-M4XCHeq22W-47" value="name" style="shape=partialRectangle;connectable=0;fillColor=#FFFFFF;top=0;left=0;bottom=0;right=0;align=left;spacingLeft=6;overflow=hidden;whiteSpace=wrap;html=1;fontColor=#000000;strokeColor=default;labelBackgroundColor=none;" parent="ISM1A_LoX-M4XCHeq22W-45" vertex="1">
                    <mxGeometry x="30" width="150" height="30" as="geometry">
                        <mxRectangle width="150" height="30" as="alternateBounds"/>
                    </mxGeometry>
                </mxCell>
                <mxCell id="ISM1A_LoX-M4XCHeq22W-48" value="" style="shape=tableRow;horizontal=0;startSize=0;swimlaneHead=0;swimlaneBody=0;fillColor=#FFFFFF;collapsible=0;dropTarget=0;points=[[0,0.5],[1,0.5]];portConstraint=eastwest;top=0;left=0;right=0;bottom=0;labelBackgroundColor=none;fontColor=#000000;strokeColor=default;" parent="ISM1A_LoX-M4XCHeq22W-41" vertex="1">
                    <mxGeometry y="90" width="180" height="20" as="geometry"/>
                </mxCell>
                <mxCell id="ISM1A_LoX-M4XCHeq22W-49" value="" style="shape=partialRectangle;connectable=0;fillColor=#FFFFFF;top=0;left=0;bottom=0;right=0;editable=1;overflow=hidden;whiteSpace=wrap;html=1;fontColor=#000000;strokeColor=default;labelBackgroundColor=none;" parent="ISM1A_LoX-M4XCHeq22W-48" vertex="1">
                    <mxGeometry width="30" height="20" as="geometry">
                        <mxRectangle width="30" height="20" as="alternateBounds"/>
                    </mxGeometry>
                </mxCell>
                <mxCell id="ISM1A_LoX-M4XCHeq22W-50" value="duration" style="shape=partialRectangle;connectable=0;fillColor=#FFFFFF;top=0;left=0;bottom=0;right=0;align=left;spacingLeft=6;overflow=hidden;whiteSpace=wrap;html=1;fontColor=#000000;strokeColor=default;labelBackgroundColor=none;" parent="ISM1A_LoX-M4XCHeq22W-48" vertex="1">
                    <mxGeometry x="30" width="150" height="20" as="geometry">
                        <mxRectangle width="150" height="20" as="alternateBounds"/>
                    </mxGeometry>
                </mxCell>
                <mxCell id="yGnGQAbGgA8px8D-PLze-26" value="" style="shape=tableRow;horizontal=0;startSize=0;swimlaneHead=0;swimlaneBody=0;fillColor=#FFFFFF;collapsible=0;dropTarget=0;points=[[0,0.5],[1,0.5]];portConstraint=eastwest;top=0;left=0;right=0;bottom=0;labelBackgroundColor=none;fontColor=#000000;strokeColor=default;" parent="ISM1A_LoX-M4XCHeq22W-41" vertex="1">
                    <mxGeometry y="110" width="180" height="30" as="geometry"/>
                </mxCell>
                <mxCell id="yGnGQAbGgA8px8D-PLze-27" value="" style="shape=partialRectangle;connectable=0;fillColor=#FFFFFF;top=0;left=0;bottom=0;right=0;editable=1;overflow=hidden;whiteSpace=wrap;html=1;fontColor=#000000;strokeColor=default;labelBackgroundColor=none;" parent="yGnGQAbGgA8px8D-PLze-26" vertex="1">
                    <mxGeometry width="30" height="30" as="geometry">
                        <mxRectangle width="30" height="30" as="alternateBounds"/>
                    </mxGeometry>
                </mxCell>
                <mxCell id="yGnGQAbGgA8px8D-PLze-28" value="location" style="shape=partialRectangle;connectable=0;fillColor=#FFFFFF;top=0;left=0;bottom=0;right=0;align=left;spacingLeft=6;overflow=hidden;whiteSpace=wrap;html=1;fontColor=#000000;strokeColor=default;labelBackgroundColor=none;" parent="yGnGQAbGgA8px8D-PLze-26" vertex="1">
                    <mxGeometry x="30" width="150" height="30" as="geometry">
                        <mxRectangle width="150" height="30" as="alternateBounds"/>
                    </mxGeometry>
                </mxCell>
                <mxCell id="ISM1A_LoX-M4XCHeq22W-51" value="" style="shape=tableRow;horizontal=0;startSize=0;swimlaneHead=0;swimlaneBody=0;fillColor=#FFFFFF;collapsible=0;dropTarget=0;points=[[0,0.5],[1,0.5]];portConstraint=eastwest;top=0;left=0;right=0;bottom=0;labelBackgroundColor=none;fontColor=#000000;strokeColor=default;" parent="ISM1A_LoX-M4XCHeq22W-41" vertex="1">
                    <mxGeometry y="140" width="180" height="30" as="geometry"/>
                </mxCell>
                <mxCell id="ISM1A_LoX-M4XCHeq22W-52" value="FK" style="shape=partialRectangle;connectable=0;fillColor=#FFFFFF;top=0;left=0;bottom=0;right=0;editable=1;overflow=hidden;whiteSpace=wrap;html=1;fontColor=#000000;strokeColor=default;labelBackgroundColor=none;" parent="ISM1A_LoX-M4XCHeq22W-51" vertex="1">
                    <mxGeometry width="30" height="30" as="geometry">
                        <mxRectangle width="30" height="30" as="alternateBounds"/>
                    </mxGeometry>
                </mxCell>
                <mxCell id="ISM1A_LoX-M4XCHeq22W-53" value="degree_course_id" style="shape=partialRectangle;connectable=0;fillColor=#FFFFFF;top=0;left=0;bottom=0;right=0;align=left;spacingLeft=6;overflow=hidden;whiteSpace=wrap;html=1;fontColor=#000000;strokeColor=default;labelBackgroundColor=none;" parent="ISM1A_LoX-M4XCHeq22W-51" vertex="1">
                    <mxGeometry x="30" width="150" height="30" as="geometry">
                        <mxRectangle width="150" height="30" as="alternateBounds"/>
                    </mxGeometry>
                </mxCell>
                <mxCell id="ISM1A_LoX-M4XCHeq22W-54" value="students" style="shape=table;startSize=30;container=1;collapsible=1;childLayout=tableLayout;fixedRows=1;rowLines=0;fontStyle=1;align=center;resizeLast=1;html=1;fillColor=#FFFFFF;strokeColor=default;fontColor=#000000;labelBackgroundColor=none;" parent="1" vertex="1">
                    <mxGeometry y="-677.5" width="180" height="200" as="geometry"/>
                </mxCell>
                <mxCell id="ISM1A_LoX-M4XCHeq22W-55" value="" style="shape=tableRow;horizontal=0;startSize=0;swimlaneHead=0;swimlaneBody=0;fillColor=#FFFFFF;collapsible=0;dropTarget=0;points=[[0,0.5],[1,0.5]];portConstraint=eastwest;top=0;left=0;right=0;bottom=1;fontColor=#000000;labelBackgroundColor=none;strokeColor=default;" parent="ISM1A_LoX-M4XCHeq22W-54" vertex="1">
                    <mxGeometry y="30" width="180" height="30" as="geometry"/>
                </mxCell>
                <mxCell id="ISM1A_LoX-M4XCHeq22W-56" value="PK" style="shape=partialRectangle;connectable=0;fillColor=#FFFFFF;top=0;left=0;bottom=0;right=0;fontStyle=1;overflow=hidden;whiteSpace=wrap;html=1;strokeColor=default;fontColor=#000000;labelBackgroundColor=none;" parent="ISM1A_LoX-M4XCHeq22W-55" vertex="1">
                    <mxGeometry width="30" height="30" as="geometry">
                        <mxRectangle width="30" height="30" as="alternateBounds"/>
                    </mxGeometry>
                </mxCell>
                <mxCell id="ISM1A_LoX-M4XCHeq22W-57" value="id" style="shape=partialRectangle;connectable=0;fillColor=#FFFFFF;top=0;left=0;bottom=0;right=0;align=left;spacingLeft=6;fontStyle=5;overflow=hidden;whiteSpace=wrap;html=1;strokeColor=default;fontColor=#000000;labelBackgroundColor=none;" parent="ISM1A_LoX-M4XCHeq22W-55" vertex="1">
                    <mxGeometry x="30" width="150" height="30" as="geometry">
                        <mxRectangle width="150" height="30" as="alternateBounds"/>
                    </mxGeometry>
                </mxCell>
                <mxCell id="ISM1A_LoX-M4XCHeq22W-58" value="" style="shape=tableRow;horizontal=0;startSize=0;swimlaneHead=0;swimlaneBody=0;fillColor=#FFFFFF;collapsible=0;dropTarget=0;points=[[0,0.5],[1,0.5]];portConstraint=eastwest;top=0;left=0;right=0;bottom=0;fontColor=#000000;labelBackgroundColor=none;strokeColor=default;" parent="ISM1A_LoX-M4XCHeq22W-54" vertex="1">
                    <mxGeometry y="60" width="180" height="30" as="geometry"/>
                </mxCell>
                <mxCell id="ISM1A_LoX-M4XCHeq22W-59" value="" style="shape=partialRectangle;connectable=0;fillColor=#FFFFFF;top=0;left=0;bottom=0;right=0;editable=1;overflow=hidden;whiteSpace=wrap;html=1;strokeColor=default;fontColor=#000000;labelBackgroundColor=none;" parent="ISM1A_LoX-M4XCHeq22W-58" vertex="1">
                    <mxGeometry width="30" height="30" as="geometry">
                        <mxRectangle width="30" height="30" as="alternateBounds"/>
                    </mxGeometry>
                </mxCell>
                <mxCell id="ISM1A_LoX-M4XCHeq22W-60" value="first_name" style="shape=partialRectangle;connectable=0;fillColor=#FFFFFF;top=0;left=0;bottom=0;right=0;align=left;spacingLeft=6;overflow=hidden;whiteSpace=wrap;html=1;strokeColor=default;fontColor=#000000;labelBackgroundColor=none;" parent="ISM1A_LoX-M4XCHeq22W-58" vertex="1">
                    <mxGeometry x="30" width="150" height="30" as="geometry">
                        <mxRectangle width="150" height="30" as="alternateBounds"/>
                    </mxGeometry>
                </mxCell>
                <mxCell id="ISM1A_LoX-M4XCHeq22W-61" value="" style="shape=tableRow;horizontal=0;startSize=0;swimlaneHead=0;swimlaneBody=0;fillColor=#FFFFFF;collapsible=0;dropTarget=0;points=[[0,0.5],[1,0.5]];portConstraint=eastwest;top=0;left=0;right=0;bottom=0;fontColor=#000000;labelBackgroundColor=none;strokeColor=default;" parent="ISM1A_LoX-M4XCHeq22W-54" vertex="1">
                    <mxGeometry y="90" width="180" height="30" as="geometry"/>
                </mxCell>
                <mxCell id="ISM1A_LoX-M4XCHeq22W-62" value="" style="shape=partialRectangle;connectable=0;fillColor=#FFFFFF;top=0;left=0;bottom=0;right=0;editable=1;overflow=hidden;whiteSpace=wrap;html=1;strokeColor=default;fontColor=#000000;labelBackgroundColor=none;" parent="ISM1A_LoX-M4XCHeq22W-61" vertex="1">
                    <mxGeometry width="30" height="30" as="geometry">
                        <mxRectangle width="30" height="30" as="alternateBounds"/>
                    </mxGeometry>
                </mxCell>
                <mxCell id="ISM1A_LoX-M4XCHeq22W-63" value="last_name" style="shape=partialRectangle;connectable=0;fillColor=#FFFFFF;top=0;left=0;bottom=0;right=0;align=left;spacingLeft=6;overflow=hidden;whiteSpace=wrap;html=1;strokeColor=default;fontColor=#000000;labelBackgroundColor=none;" parent="ISM1A_LoX-M4XCHeq22W-61" vertex="1">
                    <mxGeometry x="30" width="150" height="30" as="geometry">
                        <mxRectangle width="150" height="30" as="alternateBounds"/>
                    </mxGeometry>
                </mxCell>
                <mxCell id="yGnGQAbGgA8px8D-PLze-29" value="" style="shape=tableRow;horizontal=0;startSize=0;swimlaneHead=0;swimlaneBody=0;fillColor=#FFFFFF;collapsible=0;dropTarget=0;points=[[0,0.5],[1,0.5]];portConstraint=eastwest;top=0;left=0;right=0;bottom=0;fontColor=#000000;labelBackgroundColor=none;strokeColor=default;" parent="ISM1A_LoX-M4XCHeq22W-54" vertex="1">
                    <mxGeometry y="120" width="180" height="30" as="geometry"/>
                </mxCell>
                <mxCell id="yGnGQAbGgA8px8D-PLze-30" value="" style="shape=partialRectangle;connectable=0;fillColor=#FFFFFF;top=0;left=0;bottom=0;right=0;editable=1;overflow=hidden;whiteSpace=wrap;html=1;strokeColor=default;fontColor=#000000;labelBackgroundColor=none;" parent="yGnGQAbGgA8px8D-PLze-29" vertex="1">
                    <mxGeometry width="30" height="30" as="geometry">
                        <mxRectangle width="30" height="30" as="alternateBounds"/>
                    </mxGeometry>
                </mxCell>
                <mxCell id="yGnGQAbGgA8px8D-PLze-31" value="email" style="shape=partialRectangle;connectable=0;fillColor=#FFFFFF;top=0;left=0;bottom=0;right=0;align=left;spacingLeft=6;overflow=hidden;whiteSpace=wrap;html=1;strokeColor=default;fontColor=#000000;labelBackgroundColor=none;" parent="yGnGQAbGgA8px8D-PLze-29" vertex="1">
                    <mxGeometry x="30" width="150" height="30" as="geometry">
                        <mxRectangle width="150" height="30" as="alternateBounds"/>
                    </mxGeometry>
                </mxCell>
                <mxCell id="WQHd8UD2Q7BZYoQrJrF5-18" value="" style="shape=tableRow;horizontal=0;startSize=0;swimlaneHead=0;swimlaneBody=0;fillColor=#FFFFFF;collapsible=0;dropTarget=0;points=[[0,0.5],[1,0.5]];portConstraint=eastwest;top=0;left=0;right=0;bottom=0;fontColor=#000000;labelBackgroundColor=none;strokeColor=default;" parent="ISM1A_LoX-M4XCHeq22W-54" vertex="1">
                    <mxGeometry y="150" width="180" height="30" as="geometry"/>
                </mxCell>
                <mxCell id="WQHd8UD2Q7BZYoQrJrF5-19" value="" style="shape=partialRectangle;connectable=0;fillColor=#FFFFFF;top=0;left=0;bottom=0;right=0;editable=1;overflow=hidden;whiteSpace=wrap;html=1;strokeColor=default;fontColor=#000000;labelBackgroundColor=none;" parent="WQHd8UD2Q7BZYoQrJrF5-18" vertex="1">
                    <mxGeometry width="30" height="30" as="geometry">
                        <mxRectangle width="30" height="30" as="alternateBounds"/>
                    </mxGeometry>
                </mxCell>
                <mxCell id="WQHd8UD2Q7BZYoQrJrF5-20" value="number" style="shape=partialRectangle;connectable=0;fillColor=#FFFFFF;top=0;left=0;bottom=0;right=0;align=left;spacingLeft=6;overflow=hidden;whiteSpace=wrap;html=1;strokeColor=default;fontColor=#000000;labelBackgroundColor=none;" parent="WQHd8UD2Q7BZYoQrJrF5-18" vertex="1">
                    <mxGeometry x="30" width="150" height="30" as="geometry">
                        <mxRectangle width="150" height="30" as="alternateBounds"/>
                    </mxGeometry>
                </mxCell>
                <mxCell id="ISM1A_LoX-M4XCHeq22W-64" value="" style="shape=tableRow;horizontal=0;startSize=0;swimlaneHead=0;swimlaneBody=0;fillColor=#FFFFFF;collapsible=0;dropTarget=0;points=[[0,0.5],[1,0.5]];portConstraint=eastwest;top=0;left=0;right=0;bottom=0;fontColor=#000000;labelBackgroundColor=none;strokeColor=default;" parent="ISM1A_LoX-M4XCHeq22W-54" vertex="1">
                    <mxGeometry y="180" width="180" height="20" as="geometry"/>
                </mxCell>
                <mxCell id="ISM1A_LoX-M4XCHeq22W-65" value="FK" style="shape=partialRectangle;connectable=0;fillColor=#FFFFFF;top=0;left=0;bottom=0;right=0;editable=1;overflow=hidden;whiteSpace=wrap;html=1;strokeColor=default;fontColor=#000000;labelBackgroundColor=none;" parent="ISM1A_LoX-M4XCHeq22W-64" vertex="1">
                    <mxGeometry width="30" height="20" as="geometry">
                        <mxRectangle width="30" height="20" as="alternateBounds"/>
                    </mxGeometry>
                </mxCell>
                <mxCell id="ISM1A_LoX-M4XCHeq22W-66" value="degree_course_id" style="shape=partialRectangle;connectable=0;fillColor=#FFFFFF;top=0;left=0;bottom=0;right=0;align=left;spacingLeft=6;overflow=hidden;whiteSpace=wrap;html=1;strokeColor=default;fontColor=#000000;labelBackgroundColor=none;" parent="ISM1A_LoX-M4XCHeq22W-64" vertex="1">
                    <mxGeometry x="30" width="150" height="20" as="geometry">
                        <mxRectangle width="150" height="20" as="alternateBounds"/>
                    </mxGeometry>
                </mxCell>
                <mxCell id="ISM1A_LoX-M4XCHeq22W-80" value="exams_appeal" style="shape=table;startSize=30;container=1;collapsible=1;childLayout=tableLayout;fixedRows=1;rowLines=0;fontStyle=1;align=center;resizeLast=1;html=1;fillColor=#FFFFFF;fontColor=#000000;strokeColor=default;labelBackgroundColor=none;" parent="1" vertex="1">
                    <mxGeometry x="460" y="-587.5" width="180" height="150" as="geometry"/>
                </mxCell>
                <mxCell id="ISM1A_LoX-M4XCHeq22W-81" value="" style="shape=tableRow;horizontal=0;startSize=0;swimlaneHead=0;swimlaneBody=0;fillColor=#FFFFFF;collapsible=0;dropTarget=0;points=[[0,0.5],[1,0.5]];portConstraint=eastwest;top=0;left=0;right=0;bottom=1;labelBackgroundColor=none;fontColor=#000000;strokeColor=default;" parent="ISM1A_LoX-M4XCHeq22W-80" vertex="1">
                    <mxGeometry y="30" width="180" height="30" as="geometry"/>
                </mxCell>
                <mxCell id="ISM1A_LoX-M4XCHeq22W-82" value="PK" style="shape=partialRectangle;connectable=0;fillColor=#FFFFFF;top=0;left=0;bottom=0;right=0;fontStyle=1;overflow=hidden;whiteSpace=wrap;html=1;fontColor=#000000;strokeColor=default;labelBackgroundColor=none;" parent="ISM1A_LoX-M4XCHeq22W-81" vertex="1">
                    <mxGeometry width="30" height="30" as="geometry">
                        <mxRectangle width="30" height="30" as="alternateBounds"/>
                    </mxGeometry>
                </mxCell>
                <mxCell id="ISM1A_LoX-M4XCHeq22W-83" value="id" style="shape=partialRectangle;connectable=0;fillColor=#FFFFFF;top=0;left=0;bottom=0;right=0;align=left;spacingLeft=6;fontStyle=5;overflow=hidden;whiteSpace=wrap;html=1;fontColor=#000000;strokeColor=default;labelBackgroundColor=none;" parent="ISM1A_LoX-M4XCHeq22W-81" vertex="1">
                    <mxGeometry x="30" width="150" height="30" as="geometry">
                        <mxRectangle width="150" height="30" as="alternateBounds"/>
                    </mxGeometry>
                </mxCell>
                <mxCell id="ISM1A_LoX-M4XCHeq22W-84" value="" style="shape=tableRow;horizontal=0;startSize=0;swimlaneHead=0;swimlaneBody=0;fillColor=#FFFFFF;collapsible=0;dropTarget=0;points=[[0,0.5],[1,0.5]];portConstraint=eastwest;top=0;left=0;right=0;bottom=0;labelBackgroundColor=none;fontColor=#000000;strokeColor=default;" parent="ISM1A_LoX-M4XCHeq22W-80" vertex="1">
                    <mxGeometry y="60" width="180" height="30" as="geometry"/>
                </mxCell>
                <mxCell id="ISM1A_LoX-M4XCHeq22W-85" value="" style="shape=partialRectangle;connectable=0;fillColor=#FFFFFF;top=0;left=0;bottom=0;right=0;editable=1;overflow=hidden;whiteSpace=wrap;html=1;fontColor=#000000;strokeColor=default;labelBackgroundColor=none;" parent="ISM1A_LoX-M4XCHeq22W-84" vertex="1">
                    <mxGeometry width="30" height="30" as="geometry">
                        <mxRectangle width="30" height="30" as="alternateBounds"/>
                    </mxGeometry>
                </mxCell>
                <mxCell id="ISM1A_LoX-M4XCHeq22W-86" value="name" style="shape=partialRectangle;connectable=0;fillColor=#FFFFFF;top=0;left=0;bottom=0;right=0;align=left;spacingLeft=6;overflow=hidden;whiteSpace=wrap;html=1;fontColor=#000000;strokeColor=default;labelBackgroundColor=none;" parent="ISM1A_LoX-M4XCHeq22W-84" vertex="1">
                    <mxGeometry x="30" width="150" height="30" as="geometry">
                        <mxRectangle width="150" height="30" as="alternateBounds"/>
                    </mxGeometry>
                </mxCell>
                <mxCell id="ISM1A_LoX-M4XCHeq22W-90" value="" style="shape=tableRow;horizontal=0;startSize=0;swimlaneHead=0;swimlaneBody=0;fillColor=#FFFFFF;collapsible=0;dropTarget=0;points=[[0,0.5],[1,0.5]];portConstraint=eastwest;top=0;left=0;right=0;bottom=0;labelBackgroundColor=none;fontColor=#000000;strokeColor=default;" parent="ISM1A_LoX-M4XCHeq22W-80" vertex="1">
                    <mxGeometry y="90" width="180" height="30" as="geometry"/>
                </mxCell>
                <mxCell id="ISM1A_LoX-M4XCHeq22W-91" value="FK" style="shape=partialRectangle;connectable=0;fillColor=#FFFFFF;top=0;left=0;bottom=0;right=0;editable=1;overflow=hidden;whiteSpace=wrap;html=1;fontColor=#000000;strokeColor=default;shadow=0;labelBackgroundColor=none;" parent="ISM1A_LoX-M4XCHeq22W-90" vertex="1">
                    <mxGeometry width="30" height="30" as="geometry">
                        <mxRectangle width="30" height="30" as="alternateBounds"/>
                    </mxGeometry>
                </mxCell>
                <mxCell id="ISM1A_LoX-M4XCHeq22W-92" value="course_id" style="shape=partialRectangle;connectable=0;fillColor=#FFFFFF;top=0;left=0;bottom=0;right=0;align=left;spacingLeft=6;overflow=hidden;whiteSpace=wrap;html=1;fontColor=#000000;strokeColor=default;labelBackgroundColor=none;" parent="ISM1A_LoX-M4XCHeq22W-90" vertex="1">
                    <mxGeometry x="30" width="150" height="30" as="geometry">
                        <mxRectangle width="150" height="30" as="alternateBounds"/>
                    </mxGeometry>
                </mxCell>
                <mxCell id="ISM1A_LoX-M4XCHeq22W-133" value="" style="shape=tableRow;horizontal=0;startSize=0;swimlaneHead=0;swimlaneBody=0;fillColor=#FFFFFF;collapsible=0;dropTarget=0;points=[[0,0.5],[1,0.5]];portConstraint=eastwest;top=0;left=0;right=0;bottom=0;labelBackgroundColor=none;fontColor=#000000;strokeColor=default;" parent="ISM1A_LoX-M4XCHeq22W-80" vertex="1">
                    <mxGeometry y="120" width="180" height="30" as="geometry"/>
                </mxCell>
                <mxCell id="ISM1A_LoX-M4XCHeq22W-134" value="" style="shape=partialRectangle;connectable=0;fillColor=#FFFFFF;top=0;left=0;bottom=0;right=0;editable=1;overflow=hidden;whiteSpace=wrap;html=1;fontColor=#000000;strokeColor=default;shadow=0;labelBackgroundColor=none;" parent="ISM1A_LoX-M4XCHeq22W-133" vertex="1">
                    <mxGeometry width="30" height="30" as="geometry">
                        <mxRectangle width="30" height="30" as="alternateBounds"/>
                    </mxGeometry>
                </mxCell>
                <mxCell id="ISM1A_LoX-M4XCHeq22W-135" value="date" style="shape=partialRectangle;connectable=0;fillColor=#FFFFFF;top=0;left=0;bottom=0;right=0;align=left;spacingLeft=6;overflow=hidden;whiteSpace=wrap;html=1;fontColor=#000000;strokeColor=default;labelBackgroundColor=none;" parent="ISM1A_LoX-M4XCHeq22W-133" vertex="1">
                    <mxGeometry x="30" width="150" height="30" as="geometry">
                        <mxRectangle width="150" height="30" as="alternateBounds"/>
                    </mxGeometry>
                </mxCell>
                <mxCell id="ISM1A_LoX-M4XCHeq22W-106" value="" style="fontSize=12;html=1;endArrow=ERoneToMany;rounded=0;exitX=0.5;exitY=1;exitDx=0;exitDy=0;strokeWidth=3;entryX=0.5;entryY=0;entryDx=0;entryDy=0;labelBackgroundColor=none;strokeColor=#999999;" parent="1" source="ISM1A_LoX-M4XCHeq22W-107" target="ISM1A_LoX-M4XCHeq22W-15" edge="1">
                    <mxGeometry width="100" height="100" relative="1" as="geometry">
                        <mxPoint x="300" y="-1087.5" as="sourcePoint"/>
                        <mxPoint x="480" y="-1199.5" as="targetPoint"/>
                    </mxGeometry>
                </mxCell>
                <mxCell id="ISM1A_LoX-M4XCHeq22W-108" value="" style="fontSize=12;html=1;endArrow=ERoneToMany;rounded=0;entryX=0;entryY=0.5;entryDx=0;entryDy=0;strokeWidth=3;exitX=1;exitY=0.5;exitDx=0;exitDy=0;labelBackgroundColor=none;strokeColor=#999999;fillColor=#e51400;" parent="1" source="ISM1A_LoX-M4XCHeq22W-9" target="ISM1A_LoX-M4XCHeq22W-107" edge="1">
                    <mxGeometry width="100" height="100" relative="1" as="geometry">
                        <mxPoint x="170.5400000000002" y="-1027.67" as="sourcePoint"/>
                        <mxPoint x="480" y="-1007.5" as="targetPoint"/>
                    </mxGeometry>
                </mxCell>
                <mxCell id="ISM1A_LoX-M4XCHeq22W-107" value="Relationship&lt;br&gt;1 to many" style="shape=rhombus;double=1;perimeter=rhombusPerimeter;whiteSpace=wrap;html=1;align=center;strokeWidth=1;fillColor=#d80073;fontColor=#ffffff;strokeColor=default;labelBackgroundColor=none;" parent="1" vertex="1">
                    <mxGeometry x="270" y="-1080" width="120" height="90" as="geometry"/>
                </mxCell>
                <mxCell id="ISM1A_LoX-M4XCHeq22W-114" value="" style="fontSize=12;html=1;endArrow=ERoneToMany;rounded=0;entryX=0;entryY=0.5;entryDx=0;entryDy=0;exitX=1;exitY=0.5;exitDx=0;exitDy=0;strokeWidth=3;labelBackgroundColor=none;strokeColor=#999999;fillColor=#e51400;" parent="1" source="ISM1A_LoX-M4XCHeq22W-115" target="ISM1A_LoX-M4XCHeq22W-42" edge="1">
                    <mxGeometry width="100" height="100" relative="1" as="geometry">
                        <mxPoint x="370" y="-987.5" as="sourcePoint"/>
                        <mxPoint x="470" y="-1087.5" as="targetPoint"/>
                    </mxGeometry>
                </mxCell>
                <mxCell id="ISM1A_LoX-M4XCHeq22W-116" value="" style="fontSize=12;html=1;endArrow=ERoneToMany;rounded=0;strokeWidth=3;exitX=1;exitY=0.5;exitDx=0;exitDy=0;entryX=0;entryY=0.5;entryDx=0;entryDy=0;labelBackgroundColor=none;strokeColor=#999999;fillColor=#e51400;" parent="1" source="ISM1A_LoX-M4XCHeq22W-16" target="ISM1A_LoX-M4XCHeq22W-115" edge="1">
                    <mxGeometry width="100" height="100" relative="1" as="geometry">
                        <mxPoint x="410" y="-947.5" as="sourcePoint"/>
                        <mxPoint x="540" y="-1127.5" as="targetPoint"/>
                    </mxGeometry>
                </mxCell>
                <mxCell id="ISM1A_LoX-M4XCHeq22W-115" value="Relationship&lt;br&gt;1 to many" style="shape=rhombus;double=1;perimeter=rhombusPerimeter;whiteSpace=wrap;html=1;align=center;fillColor=#d80073;fontColor=#ffffff;strokeColor=default;labelBackgroundColor=none;" parent="1" vertex="1">
                    <mxGeometry x="490" y="-882.5" width="120" height="60" as="geometry"/>
                </mxCell>
                <mxCell id="yGnGQAbGgA8px8D-PLze-5" value="" style="fontSize=12;html=1;endArrow=ERoneToMany;startArrow=ERoneToMany;rounded=0;exitX=1;exitY=0.5;exitDx=0;exitDy=0;strokeWidth=3;entryX=-0.006;entryY=0.33;entryDx=0;entryDy=0;entryPerimeter=0;labelBackgroundColor=none;strokeColor=#999999;fillColor=#e51400;" parent="1" source="yGnGQAbGgA8px8D-PLze-6" target="ISM1A_LoX-M4XCHeq22W-35" edge="1">
                    <mxGeometry width="100" height="100" relative="1" as="geometry">
                        <mxPoint x="770" y="-782.5" as="sourcePoint"/>
                        <mxPoint x="870" y="-882.5" as="targetPoint"/>
                    </mxGeometry>
                </mxCell>
                <mxCell id="yGnGQAbGgA8px8D-PLze-7" value="" style="fontSize=12;html=1;endArrow=ERoneToMany;startArrow=ERoneToMany;rounded=0;entryX=0;entryY=0.5;entryDx=0;entryDy=0;strokeWidth=3;exitX=1;exitY=0.5;exitDx=0;exitDy=0;labelBackgroundColor=none;strokeColor=#999999;fillColor=#e51400;" parent="1" source="ISM1A_LoX-M4XCHeq22W-42" target="yGnGQAbGgA8px8D-PLze-6" edge="1">
                    <mxGeometry width="100" height="100" relative="1" as="geometry">
                        <mxPoint x="670" y="-867.5" as="sourcePoint"/>
                        <mxPoint x="750" y="-877.5" as="targetPoint"/>
                    </mxGeometry>
                </mxCell>
                <mxCell id="WQHd8UD2Q7BZYoQrJrF5-11" value="" style="fontSize=12;html=1;endArrow=ERoneToMany;rounded=0;exitX=0.5;exitY=1;exitDx=0;exitDy=0;strokeWidth=3;entryX=0.5;entryY=0;entryDx=0;entryDy=0;labelBackgroundColor=none;strokeColor=#999999;fillColor=#e51400;" parent="1" source="yGnGQAbGgA8px8D-PLze-8" target="ISM1A_LoX-M4XCHeq22W-54" edge="1">
                    <mxGeometry width="100" height="100" relative="1" as="geometry">
                        <mxPoint x="260" y="-1002.5" as="sourcePoint"/>
                        <mxPoint x="150" y="-967.5" as="targetPoint"/>
                        <Array as="points"/>
                    </mxGeometry>
                </mxCell>
                <mxCell id="yGnGQAbGgA8px8D-PLze-6" value="Relationship&lt;br&gt;many to many" style="shape=rhombus;double=1;perimeter=rhombusPerimeter;whiteSpace=wrap;html=1;align=center;fillColor=#d80073;fontColor=#ffffff;strokeColor=default;labelBackgroundColor=none;" parent="1" vertex="1">
                    <mxGeometry x="920" y="-892.5" width="120" height="80" as="geometry"/>
                </mxCell>
                <mxCell id="WQHd8UD2Q7BZYoQrJrF5-12" value="" style="edgeStyle=orthogonalEdgeStyle;fontSize=12;html=1;endArrow=ERoneToMany;rounded=0;entryX=1;entryY=0.5;entryDx=0;entryDy=0;strokeWidth=3;exitX=0;exitY=0.5;exitDx=0;exitDy=0;labelBackgroundColor=none;strokeColor=#999999;fillColor=#e51400;" parent="1" source="ISM1A_LoX-M4XCHeq22W-16" target="yGnGQAbGgA8px8D-PLze-8" edge="1">
                    <mxGeometry width="100" height="100" relative="1" as="geometry">
                        <mxPoint x="230" y="-877.5" as="sourcePoint"/>
                        <mxPoint x="410" y="-1002.5" as="targetPoint"/>
                        <Array as="points">
                            <mxPoint x="150" y="-852.5"/>
                        </Array>
                    </mxGeometry>
                </mxCell>
                <mxCell id="yGnGQAbGgA8px8D-PLze-8" value="Relationship&amp;nbsp;&lt;br&gt;1 to many" style="shape=rhombus;double=1;perimeter=rhombusPerimeter;whiteSpace=wrap;html=1;align=center;fillColor=#d80073;fontColor=#ffffff;strokeColor=default;labelBackgroundColor=none;" parent="1" vertex="1">
                    <mxGeometry x="30" y="-897.5" width="120" height="90" as="geometry"/>
                </mxCell>
                <mxCell id="ISM1A_LoX-M4XCHeq22W-118" value="" style="fontSize=12;html=1;endArrow=ERoneToMany;rounded=0;entryX=1;entryY=0.5;entryDx=0;entryDy=0;exitX=0;exitY=0.5;exitDx=0;exitDy=0;strokeWidth=3;labelBackgroundColor=none;strokeColor=#999999;fillColor=#e51400;" parent="1" source="ISM1A_LoX-M4XCHeq22W-119" target="ISM1A_LoX-M4XCHeq22W-84" edge="1">
                    <mxGeometry width="100" height="100" relative="1" as="geometry">
                        <mxPoint x="560" y="-707.5" as="sourcePoint"/>
                        <mxPoint x="660" y="-807.5" as="targetPoint"/>
                    </mxGeometry>
                </mxCell>
                <mxCell id="ISM1A_LoX-M4XCHeq22W-119" value="Relationship&lt;br&gt;1 to many" style="shape=rhombus;double=1;perimeter=rhombusPerimeter;whiteSpace=wrap;html=1;align=center;fillColor=#d80073;fontColor=#ffffff;strokeColor=default;labelBackgroundColor=none;" parent="1" vertex="1">
                    <mxGeometry x="710" y="-542.5" width="120" height="60" as="geometry"/>
                </mxCell>
                <mxCell id="ISM1A_LoX-M4XCHeq22W-120" value="" style="fontSize=12;html=1;endArrow=ERoneToMany;rounded=0;strokeWidth=3;entryX=0.5;entryY=0;entryDx=0;entryDy=0;exitX=0.496;exitY=1.015;exitDx=0;exitDy=0;exitPerimeter=0;labelBackgroundColor=none;strokeColor=#999999;fillColor=#e51400;" parent="1" source="ISM1A_LoX-M4XCHeq22W-51" target="ISM1A_LoX-M4XCHeq22W-119" edge="1">
                    <mxGeometry width="100" height="100" relative="1" as="geometry">
                        <mxPoint x="770.7199999999998" y="-697.3499999999999" as="sourcePoint"/>
                        <mxPoint x="610" y="-757.5" as="targetPoint"/>
                        <Array as="points"/>
                    </mxGeometry>
                </mxCell>
                <mxCell id="yGnGQAbGgA8px8D-PLze-10" value="Relationship&lt;br&gt;many to many" style="shape=rhombus;double=1;perimeter=rhombusPerimeter;whiteSpace=wrap;html=1;align=center;fillColor=#d80073;fontColor=#ffffff;strokeColor=default;labelBackgroundColor=none;" parent="1" vertex="1">
                    <mxGeometry x="270" y="-545.5" width="120" height="66" as="geometry"/>
                </mxCell>
                <mxCell id="yGnGQAbGgA8px8D-PLze-11" value="" style="fontSize=12;html=1;endArrow=ERmany;startArrow=ERmany;rounded=0;entryX=0;entryY=0.5;entryDx=0;entryDy=0;edgeStyle=elbowEdgeStyle;strokeWidth=3;exitX=1;exitY=0.5;exitDx=0;exitDy=0;labelBackgroundColor=none;strokeColor=#999999;fillColor=#e51400;" parent="1" source="WQHd8UD2Q7BZYoQrJrF5-18" target="yGnGQAbGgA8px8D-PLze-10" edge="1">
                    <mxGeometry width="100" height="100" relative="1" as="geometry">
                        <mxPoint x="160" y="-837.5" as="sourcePoint"/>
                        <mxPoint x="420" y="-867.5" as="targetPoint"/>
                        <Array as="points">
                            <mxPoint x="200" y="-507.5"/>
                        </Array>
                    </mxGeometry>
                </mxCell>
                <mxCell id="yGnGQAbGgA8px8D-PLze-12" value="" style="edgeStyle=entityRelationEdgeStyle;fontSize=12;html=1;endArrow=ERmany;startArrow=ERmany;rounded=0;exitX=1;exitY=0.5;exitDx=0;exitDy=0;strokeWidth=3;entryX=0;entryY=0.5;entryDx=0;entryDy=0;labelBackgroundColor=none;strokeColor=#999999;fillColor=#e51400;" parent="1" source="yGnGQAbGgA8px8D-PLze-10" target="ISM1A_LoX-M4XCHeq22W-84" edge="1">
                    <mxGeometry width="100" height="100" relative="1" as="geometry">
                        <mxPoint x="340" y="-657.5" as="sourcePoint"/>
                        <mxPoint x="520" y="-527.5" as="targetPoint"/>
                    </mxGeometry>
                </mxCell>
                <mxCell id="ISM1A_LoX-M4XCHeq22W-123" value="exams_appeal_students" style="swimlane;childLayout=stackLayout;horizontal=1;startSize=50;horizontalStack=0;rounded=1;fontSize=14;fontStyle=0;strokeWidth=2;resizeParent=0;resizeLast=1;shadow=0;dashed=0;align=center;arcSize=4;whiteSpace=wrap;html=1;fillColor=#1ba1e2;fontColor=#ffffff;strokeColor=default;labelBackgroundColor=none;" parent="1" vertex="1">
                    <mxGeometry x="250" y="-467.5" width="160" height="120" as="geometry"/>
                </mxCell>
                <mxCell id="ISM1A_LoX-M4XCHeq22W-132" value="&lt;b&gt;id&lt;br&gt;exams_appeal_id&lt;br&gt;students_id&lt;br&gt;vote&lt;br&gt;&lt;/b&gt;" style="text;html=1;align=left;verticalAlign=middle;resizable=0;points=[];autosize=1;strokeColor=default;fillColor=#1ba1e2;fontColor=#ffffff;labelBackgroundColor=none;" parent="ISM1A_LoX-M4XCHeq22W-123" vertex="1">
                    <mxGeometry y="50" width="160" height="70" as="geometry"/>
                </mxCell>
                <mxCell id="ISM1A_LoX-M4XCHeq22W-136" value="courses_teachers" style="swimlane;childLayout=stackLayout;horizontal=1;startSize=50;horizontalStack=0;rounded=1;fontSize=14;fontStyle=0;strokeWidth=2;resizeParent=0;resizeLast=1;shadow=0;dashed=0;align=center;arcSize=4;whiteSpace=wrap;html=1;fillColor=#1ba1e2;fontColor=#ffffff;strokeColor=default;labelBackgroundColor=none;" parent="1" vertex="1">
                    <mxGeometry x="900" y="-1047.5" width="160" height="120" as="geometry"/>
                </mxCell>
                <mxCell id="ISM1A_LoX-M4XCHeq22W-137" value="&lt;b&gt;id&lt;br&gt;teachers_id&lt;br&gt;courses_id&lt;br&gt;&lt;/b&gt;" style="text;html=1;align=left;verticalAlign=middle;resizable=0;points=[];autosize=1;strokeColor=default;fillColor=#1ba1e2;fontColor=#ffffff;labelBackgroundColor=none;" parent="ISM1A_LoX-M4XCHeq22W-136" vertex="1">
                    <mxGeometry y="50" width="160" height="70" as="geometry"/>
                </mxCell>
            </root>
        </mxGraphModel>
    </diagram>
</mxfile>